<svg width="651" height="369" viewBox="0 0 651 369" fill="none" xmlns="http://www.w3.org/2000/svg">
<mask id="path-1-inside-1" fill="white">
<path d="M48 26.6374C48 12.8303 59.1929 1.63745 73 1.63745H578C591.807 1.63745 603 12.8303 603 26.6375V339.637H48V26.6374Z"/>
</mask>
<path d="M48 26.6374C48 12.8303 59.1929 1.63745 73 1.63745H578C591.807 1.63745 603 12.8303 603 26.6375V339.637H48V26.6374Z" fill="#C4C4C4" stroke="black" stroke-width="56" mask="url(#path-1-inside-1)"/>
<rect x="1.91113" y="339.112" width="647.178" height="29.2509" rx="3" fill="#C4C4C4"/>
<path d="M297.253 339.112H353.747V347.929C353.747 349.586 352.404 350.929 350.747 350.929H300.253C298.596 350.929 297.253 349.586 297.253 347.929V339.112Z" fill="#F7EDED"/>
<path d="M249.062 200.222C249.062 197.663 248.089 195.683 246.144 194.284C244.233 192.851 240.872 191.623 236.061 190.599C231.284 189.575 227.479 188.347 224.647 186.914C221.848 185.481 219.767 183.774 218.402 181.795C217.071 179.816 216.406 177.462 216.406 174.732C216.406 170.193 218.317 166.354 222.138 163.215C225.994 160.076 230.908 158.506 236.88 158.506C243.159 158.506 248.243 160.127 252.133 163.369C256.057 166.61 258.019 170.756 258.019 175.807H248.499C248.499 173.213 247.39 170.978 245.172 169.101C242.988 167.225 240.224 166.286 236.88 166.286C233.433 166.286 230.738 167.037 228.793 168.538C226.848 170.04 225.875 172.002 225.875 174.425C225.875 176.711 226.779 178.434 228.588 179.594C230.396 180.754 233.655 181.863 238.364 182.921C243.107 183.979 246.946 185.242 249.881 186.709C252.816 188.176 254.982 189.951 256.381 192.032C257.815 194.08 258.531 196.588 258.531 199.557C258.531 204.504 256.552 208.48 252.594 211.483C248.635 214.451 243.5 215.936 237.187 215.936C232.751 215.936 228.827 215.151 225.414 213.581C222.002 212.012 219.323 209.828 217.378 207.03C215.467 204.197 214.512 201.143 214.512 197.867H223.981C224.152 201.041 225.414 203.566 227.769 205.443C230.158 207.285 233.297 208.207 237.187 208.207C240.77 208.207 243.636 207.49 245.786 206.057C247.97 204.59 249.062 202.645 249.062 200.222Z" fill="#010101"/>
<path d="M195.479 181.745C194.933 180.653 194.489 178.708 194.148 175.91C189.746 180.483 184.491 182.769 178.383 182.769C172.923 182.769 168.436 181.233 164.921 178.162C161.441 175.057 159.701 171.133 159.701 166.39C159.701 160.623 161.884 156.153 166.252 152.979C170.654 149.772 176.831 148.168 184.781 148.168H193.995V143.817C193.995 140.507 193.005 137.879 191.026 135.934C189.047 133.955 186.129 132.966 182.273 132.966C178.895 132.966 176.063 133.819 173.776 135.525C171.49 137.231 170.347 139.296 170.347 141.718H160.827C160.827 138.954 161.799 136.293 163.744 133.733C165.723 131.14 168.385 129.093 171.729 127.591C175.107 126.09 178.81 125.339 182.836 125.339C189.217 125.339 194.216 126.943 197.834 130.151C201.451 133.324 203.327 137.709 203.464 143.305V168.795C203.464 173.88 204.112 177.923 205.409 180.926V181.745H195.479ZM179.765 174.528C182.734 174.528 185.549 173.76 188.211 172.225C190.872 170.689 192.8 168.693 193.995 166.236V154.873H186.573C174.971 154.873 169.17 158.268 169.17 165.059C169.17 168.028 170.159 170.348 172.139 172.02C174.118 173.692 176.66 174.528 179.765 174.528Z" fill="#010101"/>
<path d="M412.593 183.025H425.513V185.794H412.593V206.148H409.824V185.794H373.628V184.256L409.26 131.5H412.593V183.025ZM377.935 183.025H409.824V134.832L405.518 141.907L377.935 183.025ZM478.013 175.694C478.013 185.708 476.064 193.467 472.168 198.97C468.272 204.439 462.803 207.173 455.762 207.173C448.755 207.173 443.269 204.405 439.304 198.868C435.339 193.331 433.357 185.538 433.357 175.489V161.954C433.357 152.042 435.305 144.317 439.202 138.78C443.132 133.208 448.618 130.423 455.659 130.423C462.734 130.423 468.22 133.208 472.117 138.78C476.047 144.317 478.013 152.11 478.013 162.159V175.694ZM475.244 161.954C475.244 152.896 473.535 145.838 470.117 140.779C466.733 135.721 461.914 133.191 455.659 133.191C449.37 133.191 444.534 135.738 441.15 140.831C437.8 145.889 436.126 153.016 436.126 162.21V175.591C436.126 184.615 437.852 191.673 441.304 196.766C444.756 201.858 449.575 204.405 455.762 204.405C461.982 204.405 466.785 201.858 470.169 196.766C473.552 191.673 475.244 184.529 475.244 175.335V161.954ZM527.642 183.025H540.562V185.794H527.642V206.148H524.873V185.794H488.677V184.256L524.309 131.5H527.642V183.025ZM492.983 183.025H524.873V134.832L520.566 141.907L492.983 183.025Z" fill="black"/>
<line x1="327.5" y1="85.5625" x2="327.5" y2="255.712" stroke="black" stroke-width="4"/>
</svg>
